# xmcd CD database file
#
# Track frame offsets:
#	150
#	29526
#	67686
#	79916
#	105556
#	165431
#	199044
#
# Disc length: 3097 seconds
#
# Revision: 1
# Processed by: cddbd v1.5.2PL0 Copyright (c) Steve Scherf et al.
# Submitted via: CDex 1.70beta3
#
DISCID=4d0c1707
DTITLE=The Thing - Shake
DYEAR=2015
DGENRE=Jazz
TTITLE0=Viking Disco - Perfection
TTITLE1=Til Jord Skal Du Bli
TTITLE2=The Nail Will Burn
TTITLE3=Sigill
TTITLE4=Aim
TTITLE5=Bota Fogo
TTITLE6=Fra Jord Er Du Kommet
EXTD=YEAR: 2015
EXTT0=
EXTT1=
EXTT2=
EXTT3=
EXTT4=
EXTT5=
EXTT6=
PLAYORDER=
